<svg width="24" height="24" viewBox="0 0 24 24" fill="none" xmlns="http://www.w3.org/2000/svg">
<mask id="mask0_1426_154" style="mask-type:alpha" maskUnits="userSpaceOnUse" x="0" y="0" width="24" height="24">
<rect width="24" height="24" fill="#D9D9D9"/>
</mask>
<g mask="url(#mask0_1426_154)">
<path d="M7.575 9.425H12.075C12.1583 9.425 12.2377 9.38767 12.313 9.313C12.3877 9.23767 12.425 9.15833 12.425 9.075C12.425 8.99167 12.3877 8.91233 12.313 8.837C12.2377 8.76233 12.1583 8.725 12.075 8.725H7.575C7.49167 8.725 7.41267 8.76233 7.338 8.837C7.26267 8.91233 7.225 8.99167 7.225 9.075C7.225 9.15833 7.26267 9.23767 7.338 9.313C7.41267 9.38767 7.49167 9.425 7.575 9.425ZM7.575 7.425H12.075C12.1583 7.425 12.2377 7.38733 12.313 7.312C12.3877 7.23733 12.425 7.15833 12.425 7.075C12.425 6.99167 12.3877 6.91233 12.313 6.837C12.2377 6.76233 12.1583 6.725 12.075 6.725H7.575C7.49167 6.725 7.41267 6.76233 7.338 6.837C7.26267 6.91233 7.225 6.99167 7.225 7.075C7.225 7.15833 7.26267 7.23733 7.338 7.312C7.41267 7.38733 7.49167 7.425 7.575 7.425ZM15.975 10.025V6.125H16.475C16.8917 6.125 17.246 6.271 17.538 6.563C17.8293 6.85433 17.975 7.20833 17.975 7.625V7.725H19.575C19.675 7.725 19.7583 7.75833 19.825 7.825C19.8917 7.89167 19.925 7.975 19.925 8.075C19.925 8.175 19.8917 8.25833 19.825 8.325C19.7583 8.39167 19.675 8.425 19.575 8.425H17.975V8.525C17.975 8.94167 17.8293 9.29567 17.538 9.587C17.246 9.879 16.8917 10.025 16.475 10.025H15.975ZM11.525 13.075H8.125V11.525H7.075C6.325 11.525 5.68767 11.2623 5.163 10.737C4.63767 10.2123 4.375 9.575 4.375 8.825V7.325C4.375 6.575 4.63767 5.93733 5.163 5.412C5.68767 4.88733 6.325 4.625 7.075 4.625L13.775 4.625C14.1917 4.625 14.546 4.77067 14.838 5.062C15.1293 5.354 15.275 5.70833 15.275 6.125V10.025C15.275 10.4417 15.1293 10.7957 14.838 11.087C14.546 11.379 14.1917 11.525 13.775 11.525H11.525V13.075ZM7.75 16.925C7.43333 16.925 7.16667 16.8167 6.95 16.6C6.73333 16.3833 6.625 16.1167 6.625 15.8L6.625 14.9C6.625 14.5833 6.73333 14.3167 6.95 14.1C7.16667 13.8833 7.43333 13.775 7.75 13.775H11.9C12.2167 13.775 12.4833 13.8833 12.7 14.1C12.9167 14.3167 13.025 14.5833 13.025 14.9V15.8C13.025 16.1167 12.9167 16.3833 12.7 16.6C12.4833 16.8167 12.2167 16.925 11.9 16.925H7.75Z" fill="#1C1B1F"/>
</g>
</svg>
