<svg width="24" height="24" viewBox="0 0 24 24" fill="none" xmlns="http://www.w3.org/2000/svg">
<mask id="mask0_1426_110" style="mask-type:alpha" maskUnits="userSpaceOnUse" x="0" y="0" width="24" height="24">
<rect width="24" height="24" fill="#D9D9D9"/>
</mask>
<g mask="url(#mask0_1426_110)">
<path d="M5.6 18.9992C5.43333 18.9992 5.29167 18.9409 5.175 18.8242C5.05833 18.7075 5 18.5659 5 18.3992C5 18.2325 5.05833 18.0909 5.175 17.9742C5.29167 17.8575 5.43333 17.7992 5.6 17.7992H8L5.4 9.29919C4.96667 9.09919 4.625 8.81585 4.375 8.44918C4.125 8.08252 4 7.64918 4 7.14918C4 6.49918 4.22933 5.94485 4.688 5.48618C5.146 5.02818 5.7 4.79919 6.35 4.79919C6.95 4.79919 7.45833 4.98652 7.875 5.36118C8.29167 5.73652 8.56667 6.21585 8.7 6.79919H12.5V5.14919C12.5 5.04919 12.5333 4.96585 12.6 4.89919C12.6667 4.83252 12.75 4.79919 12.85 4.79919C12.95 4.79919 13.0333 4.83252 13.1 4.89919C13.1667 4.96585 13.2 5.04919 13.2 5.14919V5.49918L15.05 3.79918C15.1833 3.66585 15.3293 3.58652 15.488 3.56118C15.646 3.53652 15.8 3.56585 15.95 3.64919L19.7 5.39919C19.8 5.44919 19.8793 5.51985 19.938 5.61118C19.996 5.70318 20 5.79918 19.95 5.89918C19.9 5.99918 19.8293 6.06185 19.738 6.08718C19.646 6.11185 19.55 6.09919 19.45 6.04919L15.6 4.24918L13.2 6.44918V7.84918L15.6 9.99919L19.45 8.19918C19.55 8.14918 19.646 8.13652 19.738 8.16118C19.8293 8.18652 19.9 8.24919 19.95 8.34919C20 8.44919 19.996 8.54485 19.938 8.63619C19.8793 8.72819 19.8 8.79919 19.7 8.84919L15.95 10.5992C15.8 10.6825 15.646 10.7119 15.488 10.6872C15.3293 10.6619 15.1833 10.5825 15.05 10.4492L13.2 8.79919V9.14918C13.2 9.24918 13.1667 9.33252 13.1 9.39918C13.0333 9.46585 12.95 9.49919 12.85 9.49919C12.75 9.49919 12.6667 9.46585 12.6 9.39918C12.5333 9.33252 12.5 9.24918 12.5 9.14918V7.49918H8.7C8.65 7.74918 8.55833 7.99919 8.425 8.24919C8.29167 8.49919 8.15 8.69919 8 8.84919L12.8 17.7992H16.1C16.2667 17.7992 16.4083 17.8575 16.525 17.9742C16.6417 18.0909 16.7 18.2325 16.7 18.3992C16.7 18.5659 16.6417 18.7075 16.525 18.8242C16.4083 18.9409 16.2667 18.9992 16.1 18.9992H5.6ZM6.35 8.79919C6.8 8.79919 7.18767 8.63652 7.513 8.31119C7.83767 7.98652 8 7.59918 8 7.14918C8 6.69918 7.83767 6.31152 7.513 5.98618C7.18767 5.66152 6.8 5.49918 6.35 5.49918C5.9 5.49918 5.51267 5.66152 5.188 5.98618C4.86267 6.31152 4.7 6.69918 4.7 7.14918C4.7 7.59918 4.86267 7.98652 5.188 8.31119C5.51267 8.63652 5.9 8.79919 6.35 8.79919Z" fill="#1C1B1F"/>
</g>
</svg>
