<svg width="24" height="24" viewBox="0 0 24 24" fill="none" xmlns="http://www.w3.org/2000/svg">
<mask id="mask0_1426_78" style="mask-type:alpha" maskUnits="userSpaceOnUse" x="0" y="0" width="24" height="24">
<rect width="24" height="24" fill="#D9D9D9"/>
</mask>
<g mask="url(#mask0_1426_78)">
<path d="M17.4249 9.37539L14.5999 6.57539L15.9249 5.27539C16.2249 4.97539 16.5832 4.82539 16.9999 4.82539C17.4166 4.82539 17.7666 4.97539 18.0499 5.27539L18.7249 5.97539C19.0082 6.25872 19.1499 6.60872 19.1499 7.02539C19.1499 7.44206 19.0082 7.79206 18.7249 8.07539L17.4249 9.37539ZM4.1249 19.8504V17.0254L8.6749 12.4754L3.3999 7.17539L6.6749 3.90039L11.9999 9.20039L14.0999 7.07539L16.9249 9.87539L14.8249 12.0004L20.0999 17.3254L16.8249 20.6004L11.4999 15.3004L6.9499 19.8504H4.1249ZM9.1749 12.0004L11.4999 9.67539L9.3749 7.55039L8.1999 8.72539L7.6999 8.22539L8.8749 7.05039L6.6749 4.85039L4.3499 7.17539L9.1749 12.0004ZM16.7999 19.6254L19.1249 17.3004L16.9249 15.1004L15.7499 16.2754L15.2499 15.7754L16.4249 14.6004L14.2999 12.4754L11.9749 14.8004L16.7999 19.6254Z" fill="#1C1B1F"/>
</g>
</svg>
