<svg width="24" height="24" viewBox="0 0 24 24" fill="none" xmlns="http://www.w3.org/2000/svg">
<path d="M13 16.3508C12.9 16.3508 12.8167 16.3174 12.75 16.2508C12.6834 16.1841 12.65 16.1008 12.65 16.0008C12.65 15.9008 12.6834 15.8174 12.75 15.7508C12.8167 15.6841 12.9 15.6508 13 15.6508H17C17.1 15.6508 17.1834 15.6841 17.25 15.7508C17.3167 15.8174 17.35 15.9008 17.35 16.0008C17.35 16.1008 17.3167 16.1841 17.25 16.2508C17.1834 16.3174 17.1 16.3508 17 16.3508H13ZM7.25005 15.8508C7.18338 15.7841 7.15005 15.7008 7.15005 15.6008C7.15005 15.5008 7.18338 15.4174 7.25005 15.3508L9.60005 13.0008L7.25005 10.6508C7.18338 10.5841 7.14605 10.5008 7.13805 10.4008C7.12938 10.3008 7.16672 10.2174 7.25005 10.1508C7.31672 10.0841 7.40005 10.0508 7.50005 10.0508C7.60005 10.0508 7.68338 10.0841 7.75005 10.1508L10.05 12.4758C10.1334 12.5591 10.1917 12.6424 10.225 12.7258C10.2584 12.8091 10.275 12.9008 10.275 13.0008C10.275 13.1008 10.2584 13.1924 10.225 13.2758C10.1917 13.3591 10.1334 13.4424 10.05 13.5258L7.75005 15.8508C7.68338 15.9174 7.60005 15.9508 7.50005 15.9508C7.40005 15.9508 7.31672 15.9174 7.25005 15.8508ZM4.80005 18.7008C4.36672 18.7008 4.00838 18.5591 3.72505 18.2758C3.44172 17.9924 3.30005 17.6341 3.30005 17.2008V6.80078C3.30005 6.36745 3.44172 6.00911 3.72505 5.72578C4.00838 5.44245 4.36672 5.30078 4.80005 5.30078H19.2C19.6334 5.30078 19.9917 5.44245 20.275 5.72578C20.5584 6.00911 20.7001 6.36745 20.7001 6.80078V17.2008C20.7001 17.6341 20.5584 17.9924 20.275 18.2758C19.9917 18.5591 19.6334 18.7008 19.2 18.7008H4.80005ZM4.80005 18.0008H19.2C19.4 18.0008 19.5834 17.9174 19.75 17.7508C19.9167 17.5841 20 17.4008 20 17.2008V8.00078H4.00005V17.2008C4.00005 17.4008 4.08338 17.5841 4.25005 17.7508C4.41672 17.9174 4.60005 18.0008 4.80005 18.0008Z" fill="#1C1B1F"/>
<mask id="mask0_1426_98" style="mask-type:alpha" maskUnits="userSpaceOnUse" x="12" y="9" width="6" height="6">
<rect x="12" y="9" width="6" height="6" fill="#D9D9D9"/>
</mask>
<g mask="url(#mask0_1426_98)">
<path d="M15.2312 14.1742H14.7624C14.7166 14.1742 14.677 14.1586 14.6437 14.1272C14.6104 14.0961 14.5895 14.0576 14.5812 14.0117L14.5124 13.4742C14.4249 13.4492 14.328 13.4076 14.2217 13.3492C14.1155 13.2909 14.027 13.2284 13.9562 13.1617L13.4687 13.3742C13.4229 13.3951 13.3781 13.3971 13.3344 13.3805C13.2906 13.3638 13.2562 13.3346 13.2312 13.293L12.9937 12.8805C12.9687 12.8388 12.9614 12.7951 12.9719 12.7492C12.9823 12.7034 13.0062 12.6659 13.0437 12.6367L13.4687 12.318C13.4604 12.268 13.453 12.2159 13.4467 12.1617C13.4405 12.1076 13.4374 12.0555 13.4374 12.0055C13.4374 11.9596 13.4405 11.9107 13.4467 11.8587L13.4687 11.6805L13.0437 11.3617C13.0062 11.3326 12.9823 11.2951 12.9719 11.2492C12.9614 11.2034 12.9687 11.1596 12.9937 11.118L13.2312 10.718C13.2562 10.6763 13.2895 10.6471 13.3312 10.6305C13.3729 10.6138 13.4166 10.6159 13.4624 10.6367L13.9499 10.843C14.0333 10.7721 14.1239 10.7086 14.2217 10.6522C14.3197 10.5961 14.4145 10.5534 14.5062 10.5242L14.5812 9.98672C14.5895 9.94089 14.6104 9.9023 14.6437 9.87097C14.677 9.8398 14.7166 9.82422 14.7624 9.82422H15.2312C15.277 9.82422 15.3177 9.8398 15.3532 9.87097C15.3885 9.9023 15.4104 9.94089 15.4187 9.98672L15.4874 10.5305C15.5958 10.568 15.6906 10.6106 15.7719 10.6585C15.8531 10.7065 15.9374 10.768 16.0249 10.843L16.5374 10.6367C16.5833 10.6159 16.627 10.6127 16.6687 10.6272C16.7104 10.6419 16.7437 10.6701 16.7687 10.7117L17.0062 11.118C17.0312 11.1596 17.0385 11.2034 17.0282 11.2492C17.0177 11.2951 16.9937 11.3326 16.9562 11.3617L16.5062 11.6992C16.5229 11.7576 16.5323 11.8107 16.5344 11.8587C16.5364 11.9066 16.5374 11.9534 16.5374 11.9992C16.5374 12.0409 16.5354 12.0856 16.5312 12.1335C16.527 12.1815 16.5187 12.2409 16.5062 12.3117L16.9437 12.6367C16.9854 12.6617 17.0104 12.6982 17.0187 12.7462C17.027 12.7941 17.0187 12.8388 16.9937 12.8805L16.7562 13.293C16.7312 13.3346 16.6969 13.3628 16.6532 13.3775C16.6094 13.392 16.5645 13.3888 16.5187 13.368L16.0249 13.1555C15.9374 13.2305 15.8499 13.294 15.7624 13.346C15.6749 13.3981 15.5833 13.4388 15.4874 13.468L15.4187 14.0117C15.4104 14.0576 15.3885 14.0961 15.3532 14.1272C15.3177 14.1586 15.277 14.1742 15.2312 14.1742ZM14.9874 12.5492C15.1416 12.5492 15.2718 12.4961 15.3779 12.3897C15.4843 12.2836 15.5374 12.1534 15.5374 11.9992C15.5374 11.8451 15.4843 11.7149 15.3779 11.6087C15.2718 11.5024 15.1416 11.4492 14.9874 11.4492C14.8333 11.4492 14.703 11.5024 14.5967 11.6087C14.4905 11.7149 14.4374 11.8451 14.4374 11.9992C14.4374 12.1534 14.4905 12.2836 14.5967 12.3897C14.703 12.4961 14.8333 12.5492 14.9874 12.5492Z" fill="#1C1B1F"/>
</g>
</svg>
